<svg version="1" xmlns="http://www.w3.org/2000/svg" width="57" height="97.682" viewBox="0 0 57 97.682"><path fill="#826550" d="M51.12 15.241C50.725 9.787 50.51 4.388 48.6 0c-.765 0-1.529 7.313-2.279 10.92-1.478 7.14-3.715 8.283-4.439 8.28-.859-3.857-4.385-4.241-7.801-5.88-1.207-.579-2.311-1.052-3.602-1.199-.666-.077-1.287.102-1.979.116-.69-.016-1.314-.193-1.98-.116-1.291.149-2.394.62-3.601 1.199-3.416 1.639-6.941 2.022-7.801 5.88-.725.004-2.963-1.141-4.439-8.28C9.928 7.315 9.163 0 8.398 0c-1.91 4.389-2.125 9.787-2.519 15.24-.88 23.538-5.88 36.288-5.88 47.159 0 26.066 11.708 35.281 28.5 35.281 16.791 0 28.5-9.215 28.5-35.281C57 51.529 52 38.779 51.12 15.241zm-16.681 9.718c-2.793 1.174-5.354-.709-5.879-.719-.018-.001-.043.006-.06.006-.018 0-.042-.007-.061-.006-.526.01-3.086 1.893-5.879.719-.785-3.583 2.396-4.042 5.94-3.904 3.545-.138 6.725.322 5.939 3.904z"/></svg>