<svg version="1" xmlns="http://www.w3.org/2000/svg" width="62.398" height="78.489" viewBox="0 0 62.398 78.489"><path fill="#826550" d="M62.4 42c0-5.213-2.367-7.775-3.599-9.961-.905-1.606-3.977-10.752-4.2-17.64C54.535 9.495 52.909 1.954 51.721 0c-.864 0-1.521 7.781-2.28 11.639-1.428 7.043-3.766 8.935-4.438 9-.758-2.809-4.113-7.363-13.677-7.725a6.572 6.572 0 0 0-.125-.043 4.821 4.821 0 0 0-.126.043c-9.561.36-12.918 4.916-13.675 7.725-.674-.066-3.011-1.957-4.439-9C12.202 7.782 11.546 0 10.681 0c-1.188 1.954-2.813 9.495-2.88 14.4-.226 6.888-3.294 16.032-4.2 17.64C2.37 34.225.003 36.788.003 42c0 3.744 5.199 7.203 5.639 11.398.125 1.223-.031 2.35.12 3.361 2.002 17.485 17.867 21.73 25.438 21.73 7.573 0 23.439-4.244 25.44-21.728.151-1.012-.005-2.139.12-3.361.44-4.196 5.64-7.653 5.64-11.4zM33.24 26.76c-.687-.135-3.394-.135-4.08 0-1.732.34-5.761.988-5.761-1.08 0-1.068 6.72-2.295 7.801-2.295 1.08 0 7.801 1.228 7.802 2.295 0 2.068-4.029 1.42-5.762 1.08z"/></svg>