<svg version="1" xmlns="http://www.w3.org/2000/svg" width="22.068" height="21.211" viewBox="0 0 22.068 21.211"><path fill="#826550" d="M21.81 0h-.103c-.989 3.298-1.255 7.319-4.012 8.848-.51-1.438-1.762-2.097-3.188-2.726-.907-.4-1.949-1.096-2.831-1.132-.213-.008-.449-.014-.643.135-.193-.149-.43-.144-.643-.135-.88.036-1.923.731-2.83 1.132-1.427.629-2.678 1.288-3.188 2.726C1.614 7.319 1.349 3.298.359 0H.257C.122.292.086.686 0 1.029c0 .823.233 9.2.823 12.191.531 2.695 2.605 4.643 4.629 5.916 1.41.887 3.646 2.074 5.582 2.074 1.934 0 4.17-1.188 5.581-2.074 2.025-1.273 4.099-3.221 4.63-5.916.591-2.991.823-11.368.823-12.191C21.982.686 21.947.292 21.81 0zm-5.971 12.027c-.105.666-.713 1.451-1.439 1.492-1.277.07-1.934-1.893-3.37-1.878-1.438-.015-2.093 1.948-3.369 1.878-.728-.041-1.335-.827-1.44-1.492-.133-.833.262-1.975.72-2.417.473-.459 1.209-.4 2.005-.515.874-.127 1.629-.378 2.084-.835 0-.016 0-.016 0 0 .456.457 1.21.708 2.083.835.797.116 1.533.057 2.006.515.459.442.852 1.584.72 2.417z"/></svg>