<svg version="1" xmlns="http://www.w3.org/2000/svg" viewBox="0 0 150 144.938"><g fill="#fff"><path d="M76.097 21.463V1a1 1 0 1 0-2 0v20.463c.334-.007.665-.025 1-.025.335-.001.666.018 1 .025zM50.031 28.436a47.737 47.737 0 0 1 1.733-.997L41.526 9.741a.995.995 0 0 0-1.366-.364.998.998 0 0 0-.364 1.366l10.235 17.693zM14.766 34.727a.998.998 0 0 0 .362 1.366l17.682 10.27a46.22 46.22 0 0 1 .999-1.73L16.132 34.364a1 1 0 0 0-1.366.363zM110.674 8.52a.998.998 0 0 0-1.366.362l-10.804 18.6c.583.324 1.162.653 1.73 1l10.802-18.596a.999.999 0 0 0-.362-1.366zM136.046 35.668a.999.999 0 0 0 .364-1.366.994.994 0 0 0-1.366-.364l-18.613 10.768c.346.568.674 1.149.997 1.733l18.618-10.771zM26.764 69.77c0-.335.018-.666.025-1H5.264a1 1 0 1 0 0 2h21.525c-.007-.334-.025-.665-.025-1zM144.93 68.77h-21.525c.007.334.025.665.025 1 0 .335-.019.666-.025 1h21.525a1 1 0 1 0 0-2zM135.065 103.448l-17.682-10.271a45.453 45.453 0 0 1-1 1.73l17.678 10.269a.999.999 0 0 0 1.004-1.728zM14.147 103.873a1 1 0 1 0 1.002 1.73l18.613-10.768a47.737 47.737 0 0 1-.997-1.733l-18.618 10.771zM100.162 111.104c-.568.346-1.149.674-1.733.997l10.238 17.698a1 1 0 1 0 1.73-1.002l-10.235-17.693zM39.157 129.654a.999.999 0 1 0 1.728 1.004l10.804-18.6a49.492 49.492 0 0 1-1.731-1l-10.801 18.596zM74.097 118.078v20.463a1 1 0 1 0 2 0v-20.463c-.334.007-.665.025-1 .025-.335 0-.666-.018-1-.025zM109.008 51.887a1.502 1.502 0 0 0-1.502-2.598L79.074 65.736a5.646 5.646 0 0 0-3.977-1.633 5.649 5.649 0 0 0-3.971 1.627L50.783 53.912a1.5 1.5 0 0 0-1.508 2.594l20.347 11.82a5.684 5.684 0 0 0-.192 1.444 5.667 5.667 0 1 0 11.334 0c0-.497-.07-.976-.191-1.435l28.435-16.448zM79.606 66.349c-.02-.025-.037-.052-.058-.077.021.025.039.051.058.077zm.394.589l-.022-.035.022.035zm-9.78-.044l-.022.037.022-.037zm.426-.625c-.017.021-.032.044-.049.066l.049-.066zm4.451 6.169a2.67 2.67 0 0 1-2.667-2.667 2.67 2.67 0 0 1 2.667-2.667 2.67 2.67 0 0 1 2.667 2.667 2.67 2.67 0 0 1-2.667 2.667z"/></g></svg>