<svg version="1" xmlns="http://www.w3.org/2000/svg" width="94.943" height="94.164" viewBox="0 0 94.943 94.164"><path fill="#826550" d="M90.284 28.39a47.19 47.19 0 0 0-8.509-13.097 303.605 303.605 0 0 1-1.976 3.778 43.17 43.17 0 0 1 6.423 10.013c1.34-.241 2.695-.466 4.062-.694zM90.009 43.564a43.07 43.07 0 0 1 .155 3.518c0 23.793-19.289 43.082-43.082 43.082-.786 0-1.565-.023-2.342-.066.134.57.229 1.178.219 1.842a6.596 6.596 0 0 1-.403 2.154c.837.045 1.679.07 2.526.07 25.961 0 47.082-21.121 47.082-47.082 0-2.089-.15-4.142-.416-6.159a38.465 38.465 0 0 1-3.739 2.641zM4 47.082C4 23.288 23.288 4 47.082 4A42.87 42.87 0 0 1 68.65 9.793a341.261 341.261 0 0 1 3.361-2.624A46.787 46.787 0 0 0 47.082 0C21.121 0 0 21.121 0 47.082c0 19.807 12.3 36.783 29.657 43.725-.4-1.498-.561-3.066-.569-4.582C14.283 79.407 4 64.45 4 47.082z"/><path fill="#826550" d="M38.77 84.906c7.737-2.721 16.312-9.662 14.539-19.826-.898-5.145-4.48-5-7.27-9.252C60.477 43.831 70.252 27.172 79.083 9.567h-1.982c-7.446 5.661-21.91 16.983-28.417 26.435-2.604 3.78-4.594 9.313-7.271 13.878-4.542 7.745-15.125 21.229-6.608 31.061-1.38 4.619-1.204 12.389 3.965 12.557 3.269-1.726-1.385-4.603 0-8.592zm8.312-38.825a2.584 2.584 0 1 1 0 5.168 2.584 2.584 0 0 1 0-5.168zM36.787 74.994c-1.856-9.003 7.01-16.95 11.896-9.252.26 7.418-6.181 15.768-11.896 9.252z"/><path fill="#826550" d="M55.953 51.203C69.916 46 86.53 43.45 94.943 32.698c-9.414 1.379-18.119 3.469-27.756 4.626-2.134 6.236-7.031 9.711-11.234 13.879zM12.335 39.968c-4.223 12.248 8.425 15.99 21.81 13.878 3.784-4.813 5.85-9.964 1.982-15.861-4.894-7.461-20.911-6.373-23.792 1.983zm5.287 7.269c-5.123-10.84 12.891-11.066 14.539-5.287 2.178 7.632-9.098 8.032-14.539 5.287z"/></svg>